<svg xmlns="http://www.w3.org/2000/svg" viewBox="16 -764 4331 797" role="img" aria-labelledby="title desc">
  <title id="title">mitsuro</title>
  <desc id="desc">Lowercase Mitsuro wordmark with a rounded point-up cell counter in the final o.</desc>
  <defs>
    <mask id="wordmark" maskUnits="userSpaceOnUse" x="16" y="-764" width="4331" height="797">
      <g fill="white" transform="scale(1 -1)">
        <path d="M108 513C63 513 40 488 40 438V61C40 14 66-9 118-9C170-9 196 14 196 61V369H721C788 369 815 342 815 291V61C815 14 840-9 892-9C944-9 971 14 971 61V278C971 434 884 513 721 513ZM427 61C427 14 453-9 505-9C557-9 584 14 584 61V253C584 300 558 323 506 323C454 323 427 300 427 253Z"/>
        <path transform="translate(1020)" d="M196 452C196 499 171 522 118 522C67 522 40 499 40 452V61C40 14 66-9 118-9C170-9 196 14 196 61ZM39 643C39 596 65 573 117 573C169 573 196 596 196 643V669C196 716 170 740 118 740C66 740 39 716 39 669Z"/>
        <path transform="translate(1256)" d="M291 633C291 680 266 704 214 704C162 704 135 680 135 633V513H73C29 513 8 489 8 441C8 393 29 369 73 369H135V61C135 14 161-9 213-9C265-9 291 14 291 61V369H353C396 369 418 393 418 441C418 489 396 513 353 513H291Z"/>
        <path transform="translate(1682)" d="M182 513C76 513 19 463 19 359C19 256 76 212 182 212H418C441 212 453 200 453 176C453 152 441 139 417 139H83C39 139 18 115 18 68C18 22 39 0 83 0H440C546 0 602 51 602 155C602 256 550 308 440 308H204C182 308 170 320 170 341C170 363 182 374 204 374H520C564 374 585 399 585 446C585 491 564 513 520 513Z"/>
        <path transform="translate(2306)" d="M191 452C191 499 166 522 114 522C62 522 35 499 35 452V235C35 79 122 0 285 0H607C652 0 675 26 675 75V452C675 499 649 522 597 522C545 522 519 499 519 452V145H285C218 145 191 171 191 222Z"/>
        <path transform="translate(3021)" d="M285 513C122 513 35 434 35 278V61C35 14 62-9 114-9C166-9 191 14 191 61V291C191 342 218 369 285 369H528C573 369 596 393 596 441C596 489 572 513 525 513Z"/>
        <path transform="translate(3625)" d="M302 513C125 513 30 427 30 257C30 86 125 0 302 0H426C603 0 698 86 698 257C698 427 603 513 426 513ZM426 369C505 369 541 330 541 257C541 184 505 145 426 145H302C223 145 187 184 187 257C187 330 223 369 302 369Z"/>
      </g>
      <rect x="3807" y="-374" width="365" height="234" rx="112" fill="white"/>
      <path fill="black" transform="translate(3810 -436) scale(.35) translate(512 512) rotate(30) scale(.88) translate(-512 -512)" d="M365 132h294c47 0 76 17 99 58l151 269c20 36 20 70 0 106L758 834c-23 41-52 58-99 58H365c-47 0-76-17-99-58L115 565c-20-36-20-70 0-106l151-269c23-41 52-58 99-58Z"/>
    </mask>
  </defs>
  <rect x="16" y="-764" width="4331" height="797" fill="currentColor" mask="url(#wordmark)"/>
</svg>
